<svg width="26" height="26" viewBox="0 0 26 26" fill="none" xmlns="http://www.w3.org/2000/svg">
<path d="M12.9999 0C5.82024 0 0 5.82039 0 12.9999C0 18.5074 3.42646 23.2156 8.26246 25.1098C8.14872 24.0812 8.04609 22.4993 8.30761 21.3764C8.54374 20.3619 9.83196 14.9146 9.83196 14.9146C9.83196 14.9146 9.44303 14.1359 9.44303 12.9845C9.44303 11.1769 10.4907 9.82739 11.7954 9.82739C12.9044 9.82739 13.4402 10.6602 13.4402 11.6586C13.4402 12.7741 12.7301 14.4416 12.3635 15.987C12.0573 17.281 13.0124 18.3361 14.2886 18.3361C16.5993 18.3361 18.3753 15.8999 18.3753 12.3831C18.3753 9.27057 16.1386 7.09429 12.9452 7.09429C9.2462 7.09429 7.075 9.86867 7.075 12.7358C7.075 13.8532 7.50537 15.0513 8.04248 15.7025C8.14861 15.8313 8.16425 15.9441 8.13267 16.0754C8.0339 16.4861 7.81468 17.369 7.77156 17.5497C7.71484 17.7877 7.58311 17.8382 7.33682 17.7236C5.71314 16.9677 4.69808 14.5941 4.69808 12.6874C4.69808 8.58655 7.67752 4.82061 13.2876 4.82061C17.7973 4.82061 21.302 8.034 21.302 12.3286C21.302 16.809 18.4771 20.4146 14.5561 20.4146C13.2388 20.4146 12.0004 19.7303 11.5766 18.922C11.5766 18.922 10.9246 21.404 10.7666 22.0123C10.473 23.1415 9.68079 24.5569 9.15083 25.4202C10.3673 25.7969 11.6599 25.9999 12.9999 25.9999C20.1798 25.9999 26 20.1798 26 12.9999C26 5.82039 20.1798 0 12.9999 0Z" fill="#D0CBC9"/>
</svg>
