<svg width="24" height="24" viewBox="0 0 24 24" fill="none" xmlns="http://www.w3.org/2000/svg">
<path d="M5.31883 14.5033L4.48343 17.6219L1.43009 17.6865C0.517586 15.994 0 14.0576 0 11.9998C0 10.01 0.48393 8.13349 1.34173 6.48122H1.34239L4.06072 6.97959L5.25151 9.68161C5.00228 10.4082 4.86644 11.1882 4.86644 11.9998C4.86654 12.8807 5.0261 13.7247 5.31883 14.5033Z" fill="#FBBB00"/>
<path d="M23.7901 9.75806C23.9279 10.484 23.9998 11.2336 23.9998 11.9998C23.9998 12.8589 23.9094 13.6969 23.7374 14.5053C23.1532 17.256 21.6269 19.6579 19.5124 21.3577L19.5117 21.357L16.0879 21.1823L15.6033 18.1573C17.0063 17.3344 18.1028 16.0468 18.6804 14.5053H12.2638V9.75806H18.774H23.7901Z" fill="#518EF8"/>
<path d="M19.5118 21.3571L19.5125 21.3577C17.4561 23.0107 14.8437 23.9997 12.0001 23.9997C7.43025 23.9997 3.45714 21.4454 1.43034 17.6866L5.31908 14.5033C6.33245 17.2079 8.94143 19.1332 12.0001 19.1332C13.3148 19.1332 14.5464 18.7778 15.6033 18.1573L19.5118 21.3571Z" fill="#28B446"/>
<path d="M19.6591 2.76258L15.7717 5.94516C14.6779 5.26145 13.3849 4.86649 11.9997 4.86649C8.87181 4.86649 6.21404 6.88007 5.25143 9.6816L1.34225 6.48122H1.3416C3.33872 2.63073 7.36194 0 11.9997 0C14.9113 0 17.5809 1.03714 19.6591 2.76258Z" fill="#F14336"/>
</svg>
