<svg width="59" height="16" viewBox="0 0 59 16" fill="none" xmlns="http://www.w3.org/2000/svg">
    <path d="M3.62818 1.0135C4.25136 1.0135 4.73195 1.0855 5.06995 1.22949C5.40794 1.36241 5.69841 1.5064 5.94134 1.66147C6.06809 1.73901 6.16843 1.79993 6.24237 1.84424C6.32687 1.87747 6.40609 1.89408 6.48002 1.89408C6.58565 1.89408 6.65958 1.83316 6.70183 1.71132C6.75465 1.58948 6.7969 1.40672 6.82858 1.16303H7.19298C7.18242 1.37349 7.16658 1.62825 7.14545 1.92731C7.13489 2.2153 7.12433 2.59744 7.11377 3.07373C7.11377 3.55002 7.11377 4.17584 7.11377 4.95119H6.74936C6.70712 4.37522 6.58037 3.81585 6.36912 3.27311C6.15787 2.73036 5.85684 2.2873 5.46603 1.94393C5.08579 1.58948 4.61576 1.41225 4.05596 1.41225C3.54896 1.41225 3.13175 1.56179 2.80431 1.86085C2.47688 2.15992 2.31316 2.57529 2.31316 3.10696C2.31316 3.55002 2.41879 3.93216 2.63003 4.25338C2.84128 4.56352 3.14759 4.86812 3.54896 5.16719C3.96089 5.46625 4.45733 5.82624 5.03826 6.24714C5.54525 6.59052 5.99944 6.93389 6.40081 7.27726C6.80218 7.62063 7.12433 8.00831 7.36726 8.44029C7.6102 8.87227 7.73167 9.38733 7.73167 9.98546C7.73167 10.7165 7.54682 11.3202 7.17714 11.7965C6.81802 12.2728 6.34271 12.6327 5.75122 12.8764C5.15973 13.109 4.51014 13.2253 3.80246 13.2253C3.14759 13.2253 2.62475 13.1589 2.23394 13.026C1.84314 12.893 1.5157 12.7546 1.25164 12.6106C1.01927 12.4555 0.83971 12.378 0.712961 12.378C0.607337 12.378 0.528119 12.4389 0.475307 12.5607C0.433058 12.6826 0.396089 12.8654 0.364402 13.109H0C0.0211248 12.8432 0.0316872 12.5331 0.0316872 12.1786C0.0422495 11.8242 0.0475307 11.3645 0.0475307 10.7996C0.0580931 10.2236 0.0633743 9.4981 0.0633743 8.62305H0.427777C0.470026 9.3541 0.586212 10.0408 0.776335 10.6833C0.977021 11.3146 1.27805 11.8242 1.67942 12.2118C2.09135 12.5995 2.63532 12.7934 3.31131 12.7934C3.68099 12.7934 4.00843 12.7269 4.29361 12.594C4.58936 12.45 4.82701 12.2395 5.00657 11.9626C5.18613 11.6857 5.27591 11.3423 5.27591 10.9325C5.27591 10.4673 5.17029 10.063 4.95904 9.71963C4.75835 9.37626 4.47845 9.05504 4.11933 8.75597C3.77077 8.45691 3.36412 8.1523 2.89937 7.84216C2.40294 7.49879 1.9382 7.15542 1.50514 6.81205C1.07208 6.46867 0.723523 6.07546 0.459464 5.6324C0.205967 5.18934 0.0792179 4.66321 0.0792179 4.054C0.0792179 3.35618 0.242935 2.78574 0.570369 2.34268C0.908365 1.88854 1.3467 1.55625 1.88539 1.34579C2.43463 1.12427 3.01556 1.0135 3.62818 1.0135Z" fill="#5F6AFF"/>
    <path d="M12.36 0V5.71547C12.624 5.13949 12.9779 4.74074 13.4215 4.51921C13.8757 4.2866 14.3827 4.1703 14.9425 4.1703C15.3967 4.1703 15.7611 4.23122 16.0357 4.35306C16.3103 4.46383 16.5268 4.6189 16.6853 4.81828C16.8648 5.02873 16.9916 5.3001 17.0655 5.6324C17.15 5.96469 17.1923 6.41329 17.1923 6.97819V11.4476C17.1923 11.9128 17.2662 12.2285 17.4141 12.3946C17.5725 12.5607 17.8366 12.6438 18.2063 12.6438V12.9927C18.0056 12.9817 17.6993 12.9706 17.2873 12.9595C16.886 12.9373 16.4951 12.9263 16.1149 12.9263C15.703 12.9263 15.3016 12.9373 14.9108 12.9595C14.5305 12.9706 14.2454 12.9817 14.0552 12.9927V12.6438C14.3721 12.6438 14.5939 12.5607 14.7207 12.3946C14.8474 12.2285 14.9108 11.9128 14.9108 11.4476V6.28037C14.9108 6.00346 14.8844 5.76532 14.8316 5.56594C14.7788 5.35549 14.6784 5.19488 14.5305 5.08411C14.3932 4.96227 14.1925 4.90135 13.9285 4.90135C13.6433 4.90135 13.3792 4.98442 13.1363 5.15057C12.9039 5.30564 12.7138 5.52717 12.5659 5.81516C12.4286 6.10315 12.36 6.43545 12.36 6.81205V11.4476C12.36 11.9128 12.4233 12.2285 12.5501 12.3946C12.6768 12.5607 12.8987 12.6438 13.2155 12.6438V12.9927C13.0254 12.9817 12.7455 12.9706 12.3758 12.9595C12.0061 12.9373 11.6312 12.9263 11.2509 12.9263C10.839 12.9263 10.4218 12.9373 9.99928 12.9595C9.58735 12.9706 9.27575 12.9817 9.06451 12.9927V12.6438C9.43419 12.6438 9.69297 12.5607 9.84084 12.3946C9.99928 12.2285 10.0785 11.9128 10.0785 11.4476V1.99377C10.0785 1.49533 10.0046 1.1298 9.85669 0.897197C9.71937 0.653513 9.45531 0.531672 9.06451 0.531672V0.182763C9.4025 0.215993 9.72994 0.232607 10.0468 0.232607C10.4799 0.232607 10.8918 0.215993 11.2826 0.182763C11.6734 0.138457 12.0325 0.0775358 12.36 0Z" fill="#5F6AFF"/>
    <path d="M23.3459 4.1703C24.1169 4.1703 24.7929 4.31983 25.3739 4.6189C25.9548 4.91796 26.409 5.39979 26.7364 6.06438C27.0638 6.72897 27.2276 7.60955 27.2276 8.70613C27.2276 9.8027 27.0638 10.6833 26.7364 11.3479C26.409 12.0014 25.9548 12.4777 25.3739 12.7767C24.7929 13.0758 24.1169 13.2253 23.3459 13.2253C22.596 13.2253 21.9252 13.0758 21.3337 12.7767C20.7528 12.4777 20.2934 12.0014 19.9554 11.3479C19.6279 10.6833 19.4642 9.8027 19.4642 8.70613C19.4642 7.60955 19.6279 6.72897 19.9554 6.06438C20.2934 5.39979 20.7528 4.91796 21.3337 4.6189C21.9252 4.31983 22.596 4.1703 23.3459 4.1703ZM23.3459 4.5026C22.9234 4.5026 22.5695 4.83489 22.2844 5.49948C21.9992 6.15299 21.8566 7.22188 21.8566 8.70613C21.8566 10.1904 21.9992 11.2593 22.2844 11.9128C22.5695 12.5663 22.9234 12.893 23.3459 12.893C23.7789 12.893 24.1328 12.5663 24.4074 11.9128C24.6926 11.2593 24.8352 10.1904 24.8352 8.70613C24.8352 7.22188 24.6926 6.15299 24.4074 5.49948C24.1328 4.83489 23.7789 4.5026 23.3459 4.5026Z" fill="#5F6AFF"/>
    <path d="M31.9241 4.22015V14.3551C31.9241 14.8757 32.0508 15.2191 32.3043 15.3853C32.5578 15.5625 32.9064 15.6511 33.35 15.6511V16C33.0754 15.9889 32.6951 15.9723 32.2093 15.9502C31.7339 15.9391 31.227 15.9335 30.6883 15.9335C30.2975 15.9335 29.9119 15.9391 29.5317 15.9502C29.162 15.9723 28.8821 15.9889 28.692 16V15.6511C29.0405 15.6511 29.2835 15.5736 29.4208 15.4185C29.5687 15.2634 29.6426 14.9643 29.6426 14.5213V6.21391C29.6426 5.71547 29.5687 5.34995 29.4208 5.11734C29.2729 4.87366 29.0089 4.75182 28.6286 4.75182V4.40291C28.9666 4.43614 29.294 4.45275 29.6109 4.45275C30.044 4.45275 30.4559 4.43614 30.8467 4.40291C31.2375 4.3586 31.5966 4.29768 31.9241 4.22015ZM34.3798 4.1703C34.9185 4.1703 35.3991 4.32537 35.8216 4.63551C36.2441 4.93458 36.5821 5.39425 36.8356 6.01454C37.0891 6.62375 37.2158 7.38802 37.2158 8.30737C37.2158 9.11596 37.126 9.82485 36.9465 10.4341C36.7775 11.0433 36.5293 11.5583 36.2018 11.9792C35.885 12.3891 35.4994 12.6992 35.0453 12.9097C34.6016 13.1201 34.0999 13.2253 33.5401 13.2253C33.1282 13.2253 32.7532 13.1478 32.4152 12.9927C32.0772 12.8487 31.8184 12.6383 31.6389 12.3614L31.7973 12.1454C31.9029 12.3448 32.0508 12.4998 32.2409 12.6106C32.4416 12.7214 32.6687 12.7767 32.9222 12.7767C33.3975 12.7767 33.7725 12.6106 34.0471 12.2783C34.3217 11.9349 34.5171 11.4586 34.6333 10.8494C34.7601 10.2291 34.8234 9.49256 34.8234 8.63967C34.8234 7.68709 34.7654 6.93943 34.6492 6.39668C34.533 5.85393 34.3745 5.46625 34.1739 5.23365C33.9732 5.00104 33.7302 4.88474 33.445 4.88474C33.0648 4.88474 32.7162 5.03981 32.3994 5.34995C32.0931 5.66009 31.9188 6.10315 31.8765 6.67913L31.7973 6.09761C31.9874 5.46625 32.3096 4.98996 32.7638 4.66874C33.2285 4.33645 33.7672 4.1703 34.3798 4.1703Z" fill="#5F6AFF"/>
    <path d="M41.8043 4.1703C42.2479 4.1703 42.6334 4.23122 42.9608 4.35306C43.2988 4.46383 43.5418 4.57459 43.6897 4.68536C44.0488 4.94012 44.2706 4.77397 44.3551 4.18692H44.6878C44.6667 4.49706 44.6508 4.8792 44.6403 5.33333C44.6297 5.77639 44.6244 6.36899 44.6244 7.11111H44.2917C44.2389 6.70128 44.1386 6.29699 43.9907 5.89823C43.8428 5.49948 43.6263 5.17272 43.3411 4.91796C43.0665 4.66321 42.7074 4.53583 42.2637 4.53583C41.9574 4.53583 41.6986 4.62998 41.4874 4.81828C41.2762 4.9955 41.1705 5.2558 41.1705 5.59917C41.1705 5.93146 41.2656 6.22499 41.4557 6.47975C41.6458 6.72343 41.8888 6.96158 42.1845 7.19419C42.4908 7.41571 42.8077 7.65386 43.1351 7.90862C43.4837 8.18553 43.8006 8.46244 44.0857 8.73936C44.3709 9.00519 44.598 9.29872 44.767 9.61994C44.936 9.94116 45.0205 10.3233 45.0205 10.7664C45.0205 11.2648 44.8832 11.7023 44.6086 12.0789C44.334 12.4444 43.9696 12.7269 43.5154 12.9263C43.0718 13.1256 42.5753 13.2253 42.0261 13.2253C41.7092 13.2253 41.424 13.1921 41.1705 13.1256C40.9276 13.0592 40.7163 12.9761 40.5368 12.8764C40.3995 12.81 40.2674 12.749 40.1407 12.6937C40.0245 12.6272 39.9136 12.5718 39.808 12.5275C39.7024 12.4943 39.6073 12.5331 39.5228 12.6438C39.4489 12.7546 39.3908 12.9097 39.3485 13.109H39.0158C39.0369 12.7546 39.0528 12.3226 39.0633 11.8131C39.0739 11.3036 39.0792 10.6279 39.0792 9.78609H39.4119C39.4753 10.3842 39.5915 10.9159 39.7604 11.3811C39.9294 11.8352 40.1565 12.1952 40.4417 12.4611C40.7375 12.7158 41.1072 12.8432 41.5508 12.8432C41.7303 12.8432 41.9046 12.8044 42.0736 12.7269C42.2426 12.6494 42.3799 12.522 42.4855 12.3448C42.6017 12.1675 42.6598 11.9405 42.6598 11.6636C42.6598 11.1762 42.5067 10.7719 42.2004 10.4507C41.9046 10.1295 41.5244 9.78055 41.0596 9.40395C40.7216 9.11596 40.3995 8.83351 40.0932 8.55659C39.7974 8.26861 39.5545 7.95846 39.3644 7.62617C39.1742 7.2828 39.0792 6.89512 39.0792 6.46314C39.0792 5.96469 39.2059 5.54379 39.4594 5.20042C39.7129 4.85704 40.0456 4.60228 40.4576 4.43614C40.8801 4.25891 41.329 4.1703 41.8043 4.1703Z" fill="#5F6AFF"/>
    <path d="M48.5206 0.116304C48.9642 0.116304 49.3128 0.232607 49.5663 0.465214C49.8303 0.686743 49.9624 0.996885 49.9624 1.39564C49.9624 1.79439 49.8303 2.11007 49.5663 2.34268C49.3128 2.56421 48.9642 2.67497 48.5206 2.67497C48.077 2.67497 47.7231 2.56421 47.4591 2.34268C47.2056 2.11007 47.0788 1.79439 47.0788 1.39564C47.0788 0.996885 47.2056 0.686743 47.4591 0.465214C47.7231 0.232607 48.077 0.116304 48.5206 0.116304ZM49.7564 4.22015V11.4476C49.7564 11.9128 49.8303 12.2285 49.9782 12.3946C50.1366 12.5607 50.4007 12.6438 50.7704 12.6438V12.9927C50.5803 12.9817 50.2845 12.9706 49.8831 12.9595C49.4818 12.9373 49.0751 12.9263 48.6632 12.9263C48.2512 12.9263 47.834 12.9373 47.4115 12.9595C46.989 12.9706 46.6722 12.9817 46.4609 12.9927V12.6438C46.8306 12.6438 47.0894 12.5607 47.2373 12.3946C47.3957 12.2285 47.4749 11.9128 47.4749 11.4476V6.21391C47.4749 5.71547 47.401 5.34995 47.2531 5.11734C47.1158 4.87366 46.8517 4.75182 46.4609 4.75182V4.40291C46.7989 4.43614 47.1264 4.45275 47.4432 4.45275C47.8868 4.45275 48.2988 4.43614 48.679 4.40291C49.0698 4.3586 49.429 4.29768 49.7564 4.22015Z" fill="#5F6AFF"/>
    <path d="M56.0214 4.1703C56.9509 4.1703 57.6797 4.45829 58.2078 5.03427C58.7359 5.61025 59 6.55175 59 7.85877H53.7875L53.7558 7.54309H57.0037C57.0143 7.00035 56.9826 6.5019 56.9086 6.04777C56.8347 5.58255 56.7185 5.21149 56.5601 4.93458C56.4017 4.65767 56.1904 4.51921 55.9263 4.51921C55.5567 4.51921 55.2398 4.76289 54.9757 5.25026C54.7222 5.73763 54.5691 6.54621 54.5163 7.67601L54.5638 7.7757C54.5532 7.90862 54.5427 8.04708 54.5321 8.19107C54.5321 8.33506 54.5321 8.4846 54.5321 8.63967C54.5321 9.40395 54.6325 10.0242 54.8331 10.5005C55.0444 10.9768 55.3084 11.3257 55.6253 11.5472C55.9422 11.7577 56.2643 11.8629 56.5918 11.8629C56.8136 11.8629 57.0407 11.8297 57.2731 11.7632C57.516 11.6857 57.7589 11.5528 58.0019 11.3645C58.2448 11.1651 58.4719 10.8882 58.6831 10.5337L58.9683 10.6334C58.8416 11.0543 58.6409 11.4642 58.3663 11.8629C58.0916 12.2617 57.7431 12.5884 57.3206 12.8432C56.8981 13.098 56.3911 13.2253 55.7996 13.2253C55.0814 13.2253 54.4476 13.0647 53.8984 12.7435C53.3491 12.4223 52.9161 11.9349 52.5992 11.2814C52.2929 10.6279 52.1397 9.79716 52.1397 8.7892C52.1397 7.75909 52.3034 6.90066 52.6309 6.21391C52.9689 5.52717 53.4283 5.01765 54.0093 4.68536C54.6008 4.34199 55.2715 4.1703 56.0214 4.1703Z" fill="#5F6AFF"/>
</svg>
