<svg width="19" height="19" viewBox="0 0 19 19" fill="none" xmlns="http://www.w3.org/2000/svg">
<path d="M13.8471 1.73382C14.0716 1.50932 14.3381 1.33124 14.6315 1.20974C14.9248 1.08824 15.2392 1.02571 15.5566 1.02571C15.8741 1.02571 16.1885 1.08824 16.4818 1.20974C16.7751 1.33124 17.0417 1.50932 17.2662 1.73382C17.4907 1.95831 17.6687 2.22483 17.7902 2.51815C17.9117 2.81147 17.9743 3.12585 17.9743 3.44333C17.9743 3.76082 17.9117 4.0752 17.7902 4.36852C17.6687 4.66184 17.4907 4.92835 17.2662 5.15285L5.72692 16.6921L1.02574 17.9742L2.30788 13.2731L13.8471 1.73382Z" stroke="#222326" stroke-width="2" stroke-linecap="round" stroke-linejoin="round"/>
</svg>
