<svg width="26" height="26" viewBox="0 0 26 26" fill="none" xmlns="http://www.w3.org/2000/svg">
<path fill-rule="evenodd" clip-rule="evenodd" d="M13 0C20.1749 0 26 5.82512 26 13C26 20.1749 20.1749 26 13 26C5.82512 26 0 20.1749 0 13C0 5.82512 5.82512 0 13 0ZM10.7102 19.9143C16.4629 19.9143 19.6083 15.1474 19.6083 11.0162C19.6083 10.88 19.6083 10.7438 19.6018 10.6141C20.2114 10.1731 20.7433 9.62183 21.1648 8.99275C20.6071 9.23919 20.0039 9.40784 19.3683 9.48563C20.0169 9.0965 20.5098 8.48687 20.7433 7.75404C20.1401 8.11073 19.4721 8.37012 18.7587 8.51282C18.188 7.90319 17.3773 7.52705 16.4758 7.52705C14.7507 7.52705 13.3498 8.9279 13.3498 10.653C13.3498 10.8995 13.3758 11.1394 13.4341 11.3664C10.8335 11.2367 8.5311 9.99152 6.9876 8.09773C6.72166 8.55822 6.56602 9.0965 6.56602 9.66723C6.56602 10.7503 7.1173 11.7102 7.96042 12.2679C7.44804 12.2549 6.9681 12.1122 6.54657 11.8788V11.9177C6.54657 13.4353 7.62313 14.6935 9.05643 14.9853C8.79704 15.0566 8.51815 15.0956 8.23281 15.0956C8.03171 15.0956 7.83717 15.0761 7.64263 15.0372C8.03822 16.2824 9.19263 17.1839 10.5611 17.2098C9.49096 18.0465 8.14201 18.5459 6.67626 18.5459C6.42332 18.5459 6.17688 18.5329 5.93044 18.5005C7.29889 19.3954 8.94618 19.9143 10.7102 19.9143Z" fill="#D0CBC9"/>
</svg>
