<svg width="26" height="26" viewBox="0 0 26 26" fill="none" xmlns="http://www.w3.org/2000/svg">
<path fill-rule="evenodd" clip-rule="evenodd" d="M12.9503 25.9999L12.962 25.9999H12.958L12.9503 25.9999ZM13.042 25.9999H13.038L13.0497 25.9999L13.042 25.9999ZM12.9106 25.9997L12.9232 25.9997H12.916L12.9106 25.9997ZM13.084 25.9997H13.0768L13.0894 25.9997L13.084 25.9997ZM12.8723 25.9994L12.8807 25.9994L12.874 25.9994H12.8723ZM13.126 25.9994L13.1193 25.9994L13.1277 25.9994H13.126ZM13.1679 25.9989L13.165 25.999L13.1763 25.9988L13.1679 25.9989ZM12.8237 25.9988L12.835 25.999L12.8321 25.9989L12.8237 25.9988ZM13.2098 25.9983L13.203 25.9984L13.2169 25.9982L13.2098 25.9983ZM12.7831 25.9982L12.797 25.9984L12.7902 25.9983L12.7831 25.9982ZM13.2517 25.9976L13.2424 25.9978L13.2553 25.9975L13.2517 25.9976ZM12.7447 25.9975L12.7576 25.9978L12.7483 25.9976L12.7447 25.9975ZM12.6971 25.9965L12.7085 25.9968L12.7065 25.9967L12.6971 25.9965ZM13.2935 25.9967L13.2915 25.9968L13.3029 25.9965L13.2935 25.9967ZM12.6553 25.9955L12.671 25.9959L12.6647 25.9957L12.6553 25.9955ZM13.3353 25.9957L13.329 25.9959L13.3447 25.9955L13.3353 25.9957ZM13.3771 25.9946L13.3669 25.9949L13.3829 25.9945L13.3771 25.9946ZM12.6171 25.9945L12.6331 25.9949L12.6229 25.9946L12.6171 25.9945ZM12.5805 25.9933L12.5919 25.9937L12.5812 25.9933L12.5713 25.993L12.5805 25.9933ZM13.4188 25.9933L13.4081 25.9937L13.4195 25.9933L13.4287 25.993L13.4188 25.9933ZM13.4605 25.992L13.4548 25.9922L13.4724 25.9916L13.4605 25.992ZM12.5276 25.9916L12.5452 25.9922L12.5395 25.992L12.5276 25.9916ZM12.4896 25.9901L12.508 25.9908L12.4978 25.9905L12.4896 25.9901ZM13.5022 25.9905L13.492 25.9908L13.5104 25.9901L13.5022 25.9905ZM12.4523 25.9886L12.4702 25.9894L12.4562 25.9888L12.4523 25.9886ZM13.5438 25.9888L13.5298 25.9894L13.5477 25.9886L13.5438 25.9888ZM12.4 25.9863L12.4193 25.9872L12.4145 25.987L12.4 25.9863ZM13.5855 25.987L13.5807 25.9872L13.6 25.9863L13.5855 25.987ZM12.3624 25.9846L12.3824 25.9855L12.373 25.9851L12.3624 25.9846ZM13.627 25.9851L13.6176 25.9855L13.6376 25.9846L13.627 25.9851ZM12.3255 25.9827L12.3456 25.9837L12.3315 25.9831L12.3255 25.9827ZM13.6685 25.9831L13.6544 25.9837L13.6745 25.9827L13.6685 25.9831ZM13.7101 25.9809L13.6917 25.9819L13.708 25.981L13.7272 25.9799L13.7101 25.9809ZM12.292 25.981L12.3083 25.9819L12.2899 25.9809L12.2728 25.9799L12.292 25.981ZM13.7515 25.9786L13.7434 25.979L13.764 25.9779L13.7515 25.9786ZM12.236 25.9779L12.2566 25.979L12.2485 25.9786L12.236 25.9779ZM12.1993 25.9757L12.2199 25.9769L12.2071 25.9762L12.1993 25.9757ZM13.7929 25.9762L13.7801 25.9769L13.8007 25.9757L13.7929 25.9762ZM12.1643 25.9735L12.1829 25.9747L12.1656 25.9736L12.1482 25.9725L12.1643 25.9735ZM13.8344 25.9736L13.8171 25.9747L13.8357 25.9735L13.8518 25.9725L13.8344 25.9736ZM13.8757 25.9709L13.8695 25.9713L13.8892 25.97L13.8757 25.9709ZM12.1108 25.97L12.1305 25.9713L12.1243 25.9709L12.1108 25.97ZM12.0742 25.9674L12.0935 25.9688L12.0829 25.9681L12.0742 25.9674ZM13.9171 25.9681L13.9065 25.9688L13.9258 25.9674L13.9171 25.9681ZM12.0377 25.9649L12.0554 25.9661L12.0417 25.9652L12.0377 25.9649ZM13.9583 25.9652L13.9446 25.9661L13.9623 25.9649L13.9583 25.9652ZM11.9886 25.9611L12.0041 25.9623L12.0004 25.9621L11.9886 25.9611ZM13.9996 25.9621L13.9959 25.9623L14.0114 25.9611L13.9996 25.9621ZM14.0408 25.9589L14.0334 25.9594L14.0492 25.9582L14.0408 25.9589ZM11.9508 25.9582L11.9666 25.9594L11.9592 25.9589L11.9508 25.9582ZM11.914 25.9552L11.9274 25.9563L11.918 25.9555L11.914 25.9552ZM14.082 25.9555L14.0726 25.9563L14.086 25.9552L14.082 25.9555ZM11.8735 25.9518L11.8775 25.9521L11.8768 25.9521L11.8735 25.9518ZM14.1232 25.9521L14.1225 25.9521L14.1265 25.9518L14.1232 25.9521ZM14.1643 25.9485L14.1607 25.9488L14.1698 25.9479L14.1643 25.9485ZM11.8302 25.9479L11.8393 25.9488L11.8357 25.9485L11.8302 25.9479ZM11.7921 25.9445L11.7989 25.9452L11.7947 25.9447L11.7921 25.9445ZM14.2053 25.9447L14.2011 25.9452L14.2079 25.9445L14.2053 25.9447ZM10.9688 25.8419C4.75724 24.8656 0 19.484 0 13C0 5.82512 5.82512 0 13 0C20.1749 0 26 5.82512 26 13C26 19.484 21.2428 24.8656 15.0312 25.8419V16.7578H18.0604L18.6367 13H15.0312V10.5614C15.0312 9.53337 15.5349 8.53125 17.1498 8.53125H18.7891V5.33203C18.7891 5.33203 17.3014 5.07812 15.879 5.07812C12.9096 5.07812 10.9688 6.87781 10.9688 10.1359V13H7.66797V16.7578H10.9688V25.8419Z" fill="#D0CBC9"/>
</svg>
