<svg width="26" height="26" viewBox="0 0 26 26" fill="none" xmlns="http://www.w3.org/2000/svg">
<path fill-rule="evenodd" clip-rule="evenodd" d="M13 0C20.1749 0 26 5.82512 26 13C26 20.1749 20.1749 26 13 26C5.82512 26 0 20.1749 0 13C0 5.82512 5.82512 0 13 0ZM13 4.875C10.7934 4.875 10.5167 4.88434 9.65006 4.9239C8.78526 4.96336 8.19462 5.10072 7.67777 5.30156C7.1435 5.50921 6.69038 5.78703 6.23868 6.23873C5.78698 6.69043 5.50916 7.14355 5.30151 7.67782C5.10067 8.19462 4.96336 8.78526 4.92385 9.65006C4.88434 10.5167 4.875 10.7934 4.875 13C4.875 15.2066 4.88434 15.4833 4.92385 16.3499C4.96336 17.2147 5.10067 17.8054 5.30151 18.3222C5.50916 18.8564 5.78698 19.3096 6.23868 19.7613C6.69038 20.213 7.1435 20.4908 7.67777 20.6985C8.19462 20.8993 8.78526 21.0366 9.65006 21.0761C10.5167 21.1157 10.7934 21.125 13 21.125C15.2066 21.125 15.4833 21.1157 16.3499 21.0761C17.2147 21.0366 17.8054 20.8993 18.3222 20.6985C18.8564 20.4908 19.3096 20.213 19.7613 19.7613C20.213 19.3096 20.4908 18.8564 20.6985 18.3222C20.8993 17.8054 21.0366 17.2147 21.0761 16.3499C21.1157 15.4833 21.125 15.2066 21.125 13C21.125 10.7934 21.1157 10.5167 21.0761 9.65006C21.0366 8.78526 20.8993 8.19462 20.6985 7.67782C20.4908 7.14355 20.213 6.69043 19.7613 6.23873C19.3096 5.78703 18.8564 5.50921 18.3222 5.30156C17.8054 5.10072 17.2147 4.96336 16.3499 4.9239C15.4833 4.88434 15.2066 4.875 13 4.875ZM13 6.33897C15.1695 6.33897 15.4264 6.34725 16.2832 6.38635C17.0754 6.42251 17.5056 6.55484 17.7919 6.66611C18.1712 6.81347 18.4418 6.98958 18.7261 7.27391C19.0105 7.55818 19.1865 7.82889 19.3339 8.20813C19.4452 8.49443 19.5775 8.9246 19.6136 9.71679C19.6528 10.5736 19.661 10.8305 19.661 13C19.661 15.1695 19.6528 15.4264 19.6136 16.2832C19.5775 17.0754 19.4452 17.5056 19.3339 17.7919C19.1865 18.1712 19.0105 18.4418 18.7261 18.7261C18.4418 19.0105 18.1712 19.1865 17.7919 19.3339C17.5056 19.4452 17.0754 19.5775 16.2832 19.6136C15.4266 19.6528 15.1696 19.661 13 19.661C10.8304 19.661 10.5735 19.6528 9.71679 19.6136C8.9246 19.5775 8.49443 19.4452 8.20813 19.3339C7.82884 19.1865 7.55818 19.0105 7.27386 18.7261C6.98953 18.4418 6.81347 18.1712 6.66611 17.7919C6.55484 17.5056 6.42246 17.0754 6.3863 16.2832C6.3472 15.4264 6.33897 15.1695 6.33897 13C6.33897 10.8305 6.3472 10.5736 6.3863 9.71679C6.42246 8.9246 6.55484 8.49443 6.66611 8.20813C6.81347 7.82889 6.98953 7.55818 7.27386 7.27391C7.55818 6.98958 7.82884 6.81347 8.20813 6.66611C8.49443 6.55484 8.9246 6.42251 9.71679 6.38635C10.5736 6.34725 10.8305 6.33897 13 6.33897ZM13 8.82771C10.6957 8.82771 8.82771 10.6957 8.82771 13C8.82771 15.3043 10.6957 17.1723 13 17.1723C15.3043 17.1723 17.1723 15.3043 17.1723 13C17.1723 10.6957 15.3043 8.82771 13 8.82771ZM13 15.7083C11.5042 15.7083 10.2917 14.4958 10.2917 13C10.2917 11.5042 11.5042 10.2917 13 10.2917C14.4958 10.2917 15.7083 11.5042 15.7083 13C15.7083 14.4958 14.4958 15.7083 13 15.7083ZM18.3122 8.66288C18.3122 9.20136 17.8756 9.63782 17.3371 9.63782C16.7987 9.63782 16.3622 9.20136 16.3622 8.66288C16.3622 8.12439 16.7987 7.68787 17.3371 7.68787C17.8756 7.68787 18.3122 8.12439 18.3122 8.66288Z" fill="#D0CBC9"/>
</svg>
